<svg xmlns="http://www.w3.org/2000/svg" viewBox="0 0 910 903"><defs><style>.cls-1{fill:none;stroke:#fff;stroke-miterlimit:10;stroke-width:0.25px;}.cls-2{fill:#191208;}.cls-3{fill:#27150d;}.cls-4{fill:#251107;}.cls-5{fill:#32150a;}.cls-6{fill:#371b0e;}.cls-7{fill:#5d2818;}.cls-8{fill:#8f4d29;}.cls-9{fill:#864129;}.cls-10{fill:#8a401f;}.cls-11{fill:#a85c2e;}.cls-12{fill:#7c2f12;}.cls-13{fill:#7b94a3;}.cls-14{fill:#aaa5b0;}.cls-15{fill:#6a4038;}.cls-16{fill:#8f7c84;}.cls-17{fill:#a9877a;}.cls-18{fill:#ae8677;}.cls-19{fill:#855b5d;}.cls-20{fill:#b3afbd;}.cls-21{fill:#afb2c5;}.cls-22{fill:#b8b9cf;}.cls-23{fill:#acc2de;}.cls-24{fill:#bccae7;}.cls-25{fill:#cee4f7;}.cls-26{fill:#def4f5;}.cls-27{fill:#f4faf5;}.cls-28{fill:#def0ef;}.cls-29{fill:#eaf3f7;}.cls-30{fill:#e1e9f7;}.cls-31{fill:#dde2f5;}.cls-32{fill:#d1d1e4;}.cls-33{fill:#bec3d6;}.cls-34{fill:#bbc7d7;}.cls-35{fill:#bdbccc;}.cls-36{fill:#bcb7b9;}.cls-37{fill:#c0baca;}.cls-38{fill:#bdc8d1;}.cls-39{fill:#c2d7e1;}.cls-40{fill:#b8c7d4;}.cls-41{fill:#9ebcd9;}.cls-42{fill:#b0d1ea;}.cls-43{fill:#9faab6;}.cls-44{fill:#acc4dc;}.cls-45{fill:#b6b7bb;}.cls-46{fill:#aeb5b9;}.cls-47{fill:#a1a9b1;}.cls-48{fill:#918fa0;}.cls-49{fill:#9a9db9;}.cls-50{fill:#b5bed1;}.cls-51{fill:#c5d0d6;}.cls-52{fill:#a99caa;}.cls-53{fill:#918fac;}.cls-54{fill:#93abc5;}.cls-55{fill:#96a3c4;}.cls-56{fill:#9ba3c0;}.cls-57{fill:#8f97b5;}.cls-58{fill:#6a7094;}.cls-59{fill:#72779b;}.cls-60{fill:#6e8299;}.cls-61{fill:#646378;}.cls-62{fill:#505e79;}.cls-63{fill:#435663;}.cls-64{fill:#5f6378;}.cls-65{fill:#41363c;}.cls-66{fill:#653931;}.cls-67{fill:#6c322b;}.cls-68{fill:#8c7e91;}.cls-69{fill:#852315;}.cls-70{fill:#a84e2a;}.cls-71{fill:#372a00;}.cls-72{fill:#cc9510;}.cls-73{fill:#f3ad00;}.cls-74{fill:#ffe209;}.cls-75{fill:#fffd09;}.cls-76{fill:#ffbc07;}.cls-77{fill:#ffc611;}.cls-78{fill:#fcf100;}.cls-79{fill:#ffdd0f;}.cls-80{fill:#f6dc0e;}.cls-81{fill:#fddb07;}.cls-82{fill:#fcf608;}.cls-83{fill:#e6b507;}.cls-84{fill:#bdd46c;}.cls-85{fill:#8da35c;}.cls-86{fill:#989741;}.cls-87{fill:#326c35;}.cls-88{fill:#5b464d;}.cls-89{fill:#255031;}.cls-90{fill:#394632;}.cls-91{fill:#8a381e;}.cls-92{fill:#9c6142;}.cls-93{fill:#d3b7ab;}.cls-94{fill:#cdaa9d;}.cls-95{fill:#af7e6b;}.cls-96{fill:#611a0e;}.cls-97{fill:#531408;}.cls-98{fill:#5a1707;}.cls-99{fill:#bf9983;}.cls-100{fill:#d7d1df;}.cls-101{fill:#924d31;}.cls-102{fill:#c69985;}.cls-103{fill:#e7dbee;}.cls-104{fill:#ceb6b6;}.cls-105{fill:#6b3626;}.cls-106{fill:#7d4c39;}.cls-107{fill:#805444;}.cls-108{fill:#9b797b;}.cls-109{fill:#8d7270;}.cls-110{fill:#794842;}.cls-111{fill:#854c46;}.cls-112{fill:#935a52;}.cls-113{fill:#734130;}.cls-114{fill:#633225;}.cls-115{fill:#823328;}.cls-116{fill:#5f150d;}.cls-117{fill:#c8b3b7;}.cls-118{fill:#490b00;}.cls-119{fill:#50120a;}.cls-120{fill:#440900;}.cls-121{fill:#962b19;}.cls-122{fill:#9c3d29;}.cls-123{fill:#a86b56;}.cls-124{fill:#c07c72;}.cls-125{fill:#aa583d;}.cls-126{fill:#a2756d;}.cls-127{fill:#d9b8b1;}.cls-128{fill:#9c583e;}.cls-129{fill:#e7d7dd;}.cls-130{fill:#aa6055;}.cls-131{fill:#e6ced8;}.cls-132{fill:#cba297;}.cls-133{fill:#5e130b;}.cls-134{fill:#120100;}.cls-135{fill:#441510;}.cls-136{fill:#a17666;}.cls-137{fill:#a16d55;}.cls-138{fill:#a77769;}.cls-139{fill:#dec6c9;}.cls-140{fill:#f0e1de;}.cls-141{fill:#7a3f28;}.cls-142{fill:#642d1e;}.cls-143{fill:#7c2f19;}.cls-144{fill:#110601;}.cls-145{fill:#601e0d;}.cls-146{fill:#641d09;}.cls-147{fill:#2c0702;}.cls-148{fill:#120602;}.cls-149{fill:#140801;}.cls-150{fill:#7e321d;}.cls-151{fill:#450f07;}.cls-152{fill:#ae9893;}.cls-153{fill:#ac725d;}.cls-154{fill:#4c1e12;}.cls-155{fill:#652213;}.cls-156{fill:#6c2718;}.cls-157{fill:#1a0400;}.cls-158{fill:#1a0902;}.cls-159{fill:#6a1e08;}.cls-160{fill:#843930;}.cls-161{fill:#501609;}.cls-162{fill:#7e2c19;}.cls-163{fill:#9e6d57;}.cls-164{fill:#9e5737;}.cls-165{fill:#9b5b41;}.cls-166{fill:#824930;}.cls-167{fill:#642012;}.cls-168{fill:#7f4034;}.cls-169{fill:#400b04;}.cls-170{fill:#531007;}.cls-171{fill:#823a28;}.cls-172{fill:#552017;}.cls-173{fill:#340e0a;}.cls-174{fill:#6e352b;}.cls-175{fill:#8a3015;}.cls-176{fill:#1a0702;}.cls-177{fill:#873a2c;}.cls-178{fill:#7d2a1a;}.cls-179{fill:#611c11;}.cls-180{fill:#6b200f;}.cls-181{fill:#591c08;}.cls-182{fill:#551709;}.cls-183{fill:#46130a;}.cls-184{fill:#491308;}.cls-185{fill:#5e1c0b;}.cls-186{fill:#4b1205;}.cls-187{fill:#601e07;}.cls-188{fill:#591b0f;}.cls-189{fill:#4d1508;}.cls-190{fill:#481207;}.cls-191{fill:#631e07;}.cls-192{fill:#5e200d;}.cls-193{fill:#591e0a;}.cls-194{fill:#521d08;}.cls-195{fill:#3e1005;}.cls-196{fill:#421008;}.cls-197{fill:#44130b;}.cls-198{fill:#3b1109;}.cls-199{fill:#1c0500;}.cls-200{fill:#300a00;}.cls-201{fill:#330d01;}.cls-202{fill:#1f0c07;}.cls-203{fill:#824e47;}.cls-204{fill:#895e56;}.cls-205{fill:#652721;}.cls-206{fill:#9e706d;}.cls-207{fill:#9a6962;}.cls-208{fill:#ad959b;}.cls-209{fill:#a57066;}.cls-210{fill:#8e4929;}.cls-211{fill:#b29b8a;}.cls-212{fill:#bab5b3;}.cls-213{fill:#641a09;}.cls-214{fill:#bea89b;}.cls-215{fill:#903f1e;}.cls-216{fill:#a87243;}.cls-217{fill:#cdc6cc;}.cls-218{fill:#a67e6f;}.cls-219{fill:#c6b4aa;}.cls-220{fill:#a77945;}.cls-221{fill:#f4e3e3;}.cls-222{fill:#af6e3c;}.cls-223{fill:#8c3921;}.cls-224{fill:#491307;}.cls-225{fill:#531509;}.cls-226{fill:#410;}.cls-227{fill:#531303;}.cls-228{fill:#491306;}.cls-229{fill:#120101;}.cls-230{fill:#0e0000;}.cls-231{fill:#59200f;}.cls-232{fill:#622f1b;}.cls-233{fill:#471003;}.cls-234{fill:#190400;}.cls-235{fill:#431208;}.cls-236{fill:#280800;}.cls-237{fill:#210900;}.cls-238{fill:#080000;}.cls-239{fill:#010000;}.cls-240{fill:#823817;}.cls-241{fill:#d1b49d;}.cls-242{fill:#9f5a40;}.cls-243{fill:#7f2610;}.cls-244{fill:#b58e6b;}.cls-245{fill:#a46952;}.cls-246{fill:#d6a987;}.cls-247{fill:#cdb497;}.cls-248{fill:#dfceb9;}.cls-249{fill:#e6d1c0;}.cls-250{fill:#e7dccd;}.cls-251{fill:#e6d4cf;}.cls-252{fill:#d8cbbe;}.cls-253{fill:#af8c74;}.cls-254{fill:#baa699;}.cls-255{fill:#bfb3ad;}.cls-256{fill:#e1dfce;}.cls-257{fill:#a78272;}.cls-258{fill:#d1ccc7;}.cls-259{fill:#642d18;}.cls-260{fill:#772812;}.cls-261{fill:#e6e6dd;}.cls-262{fill:#a2826c;}.cls-263{fill:#58190e;}.cls-264{fill:#9d7b6d;}.cls-265{fill:#c6c3bd;}.cls-266{fill:#a39893;}.cls-267{fill:#906c5e;}.cls-268{fill:#602b1c;}.cls-269{fill:#400f08;}.cls-270{fill:#331101;}.cls-271{fill:#380e07;}.cls-272{fill:#390f09;}.cls-273{fill:#71321e;}.cls-274{fill:#57301b;}.cls-275{fill:#846144;}.cls-276{fill:#310f07;}.cls-277{fill:#512311;}.cls-278{fill:#4a1308;}.cls-279{fill:#360c01;}.cls-280{fill:#34150b;}.cls-281{fill:#5e3221;}.cls-282{fill:#410f07;}.cls-283{fill:#380d01;}.cls-284{fill:#280400;}.cls-285{fill:#2a0c00;}.cls-286{fill:#411008;}.cls-287{fill:#311000;}.cls-288{fill:#310c00;}.cls-289{fill:#260b07;}.cls-290{fill:#170400;}.cls-291{fill:#190500;}.cls-292{fill:#1c0903;}.cls-293{fill:#280f07;}.cls-294{fill:#422010;}.cls-295{fill:#5f3c27;}.cls-296{fill:#9c7c65;}.cls-297{fill:#7f543c;}.cls-298{fill:#000100;}.cls-299{fill:#070100;}.cls-300{fill:#0d0400;}.cls-301{fill:#030100;}.cls-302{fill:#090200;}.cls-303{fill:#0c0500;}.cls-304{fill:#150e08;}.cls-305{fill:#191008;}.cls-306{fill:#060100;}.cls-307{fill:#060301;}.cls-308{fill:#0e0400;}.cls-309{fill:#0b0100;}.cls-310{fill:#090300;}.cls-311{fill:#170f09;}.cls-312{fill:#1b1411;}.cls-313{fill:#020000;}.cls-314{fill:#220a02;}.cls-315{fill:#090504;}.cls-316{fill:#1a0c05;}.cls-317{fill:#100809;}.cls-318{fill:#241107;}.cls-319{fill:#130703;}.cls-320{fill:#080200;}.cls-321{fill:#090304;}.cls-322{fill:#020201;}.cls-323{fill:#44180f;}.cls-324{fill:#3b1809;}.cls-325{fill:#281612;}.cls-326{fill:#120b10;}.cls-327{fill:#201b16;}.cls-328{fill:#360f05;}.cls-329{fill:#611d0d;}.cls-330{fill:#722910;}.cls-331{fill:#4d3e3b;}.cls-332{fill:#85391f;}.cls-333{fill:#a25740;}.cls-334{fill:#040400;}.cls-335{fill:#7f4a2d;}.cls-336{fill:#a25b45;}.cls-337{fill:#261914;}.cls-338{fill:#47352d;}.cls-339{fill:#4a3031;}.cls-340{fill:#685950;}.cls-341{fill:#0f0904;}.cls-342{fill:#140f07;}.cls-343{fill:#bc8776;}.cls-344{fill:#865d41;}.cls-345{fill:#95573a;}.cls-346{fill:#b07157;}.cls-347{fill:#bd8a73;}.cls-348{fill:#a66446;}.cls-349{fill:#715c4d;}.cls-350{fill:#594949;}.cls-351{fill:#321e1d;}.cls-352{fill:#bc9282;}.cls-353{fill:#bd998c;}.cls-354{fill:#b49380;}.cls-355{fill:#be9187;}.cls-356{fill:#6f3726;}.cls-357{fill:#31120c;}.cls-358{fill:#b98c7e;}.cls-359{fill:#816a5c;}.cls-360{fill:#ab8378;}.cls-361{fill:#835854;}.cls-362{fill:#bc978b;}.cls-363{fill:#b4857a;}.cls-364{fill:#895a4b;}.cls-365{fill:#9c8583;}.cls-366{fill:#7a655a;}.cls-367{fill:#5a4b40;}.cls-368{fill:#5c4235;}.cls-369{fill:#52484d;}.cls-370{fill:#7d6c75;}.cls-371{fill:#110202;}.cls-372{fill:#716669;}.cls-373{fill:#594a47;}.cls-374{fill:#c69a8c;}.cls-375{fill:#b8928a;}.cls-376{fill:#bd968c;}.cls-377{fill:#c8a39f;}.cls-378{fill:#bf9d8e;}.cls-379{fill:#c8a8a0;}.cls-380{fill:#c49082;}.cls-381{fill:#c5a8a6;}.cls-382{fill:#8b8285;}.cls-383{fill:#281916;}.cls-384{fill:#3f242e;}.cls-385{fill:#220b02;}.cls-386{fill:#482f2e;}.cls-387{fill:#7b2f21;}.cls-388{fill:#080800;}.cls-389{fill:#603f3a;}.cls-390{fill:#a97a67;}.cls-391{fill:#735549;}.cls-392{fill:#73544f;}.cls-393{fill:#231514;}.cls-394{fill:#4e3129;}.cls-395{fill:#3c2b27;}.cls-396{fill:#5f3026;}.cls-397{fill:#6e3f23;}.cls-398{fill:#6b3e23;}.cls-399{fill:#56240e;}.cls-400{fill:#8b6f6f;}.cls-401{fill:#926359;}.cls-402{fill:#bd9a94;}.cls-403{fill:#a67c74;}.cls-404{fill:#dabcbd;}.cls-405{fill:#c09488;}.cls-406{fill:#c39c91;}.cls-407{fill:#cc9d8e;}.cls-408{fill:#c4a39c;}.cls-409{fill:#e8dae5;}.cls-410{fill:#cdafae;}.cls-411{fill:#dbc0c6;}.cls-412{fill:#efdfe7;}.cls-413{fill:#dfcbcf;}.cls-414{fill:#eee1ea;}.cls-415{fill:#efe7e8;}.cls-416{fill:#e7dadd;}.cls-417{fill:#dcc0c8;}.cls-418{fill:#f5e4e3;}.cls-419{fill:#dac7c9;}.cls-420{fill:#e6d1da;}.cls-421{fill:#e8d6d7;}.cls-422{fill:#ead8de;}.cls-423{fill:#ddc7c8;}.cls-424{fill:#ebddeb;}.cls-425{fill:#ecdfe4;}.cls-426{fill:#eedbe1;}.cls-427{fill:#e9dbdd;}.cls-428{fill:#e1cfd3;}.cls-429{fill:#a94d00;}.cls-430{fill:#ad6f57;}.cls-431{fill:#d3b5b1;}.cls-432{fill:#b0654a;}.cls-433{fill:#cea195;}.cls-434{fill:#a98882;}.cls-435{fill:#d2c0bd;}.cls-436{fill:#591e0f;}.cls-437{fill:#cfb6b4;}.cls-438{fill:#421d0e;}.cls-439{fill:#dfced6;}.cls-440{fill:#f1deea;}.cls-441{fill:#efdbdf;}.cls-442{fill:#421708;}.cls-443{fill:#3d1d10;}.cls-444{fill:#691f0e;}.cls-445{fill:#4c150a;}.cls-446{fill:#8c4a2a;}.cls-447{fill:#6c2008;}.cls-448{fill:#531106;}.cls-449{fill:#652111;}.cls-450{fill:#772b13;}.cls-451{fill:#934b3a;}.cls-452{fill:#501307;}.cls-453{fill:#7b2d1b;}.cls-454{fill:#330e07;}.cls-455{fill:#581708;}.cls-456{fill:#5f1507;}.cls-457{fill:#752409;}.cls-458{fill:#6c2209;}.cls-459{fill:#b45d03;}.cls-460{fill:#4c240b;}.cls-461{fill:#e2a501;}.cls-462{fill:#df8400;}.cls-463{fill:#a69fad;}.cls-464{fill:#93818c;}.cls-465{fill:#6f2b21;}.cls-466{fill:#512018;}.cls-467{fill:#ba9991;}.cls-468{fill:#ceaea5;}.cls-469{fill:#ad6953;}.cls-470{fill:#852514;}.cls-471{fill:#d9cdd6;}.cls-472{fill:#d5cdd2;}.cls-473{fill:#b6938b;}.cls-474{fill:#71392c;}.cls-475{fill:#571e1d;}.cls-476{fill:#8a4041;}.cls-477{fill:#8b5850;}.cls-478{fill:#a2796f;}</style></defs><title>ExplanationsAsset 1SamProfile</title><g id="Layer_2" data-name="Layer 2"><g id="trace"><polygon class="cls-1" points="191 330 203 322 222 354 191 330"/><polygon class="cls-2" points="203 322 227 322 222 354 203 322"/><polygon class="cls-3" points="222 354 244 364 227 322 222 354"/><polygon class="cls-4" points="227 322 266 331 244 364 227 322"/><polygon class="cls-5" points="244 364 283 380 266 331 244 364"/><polygon class="cls-6" points="266 331 293 336 283 380 266 331"/><polygon class="cls-7" points="293 336 330 341 283 380 293 336"/><polygon class="cls-8" points="330 341 283 380 333 397 330 341"/><polygon class="cls-9" points="330 341 377 348 333 397 330 341"/><polygon class="cls-10" points="333 397 377 410 377 348 333 397"/><polygon class="cls-11" points="377 348 409 348.29 377 410 377 348"/><polygon class="cls-12" points="377 410 391 416 409 348.29 377 410"/><polygon class="cls-13" points="409 348.29 409 386 391 416 409 348.29"/><polygon class="cls-14" points="409 348.29 432 349 409 386 409 348.29"/><polygon class="cls-15" points="391 416 421 432 409 386 391 416"/><polygon class="cls-16" points="409 386 451 377 421 432 409 386"/><polygon class="cls-17" points="432 349 409 386 451 377 432 349"/><polygon class="cls-18" points="432 349 495 358 451 377 432 349"/><polygon class="cls-19" points="451 377 469 389 495 358 451 377"/><polygon class="cls-1" points="518 362 496.95 381.99 529 377 518 362"/><polygon class="cls-20" points="518 362 539 364 529 377 518 362"/><polygon class="cls-21" points="529 377 546 379 539 364 529 377"/><polygon class="cls-22" points="539 364 567 370 546 379 539 364"/><polygon class="cls-23" points="567 370 577 382 546 379 567 370"/><polygon class="cls-24" points="567 370 604 376 577 382 567 370"/><polygon class="cls-25" points="577 382 631 392 604 376 577 382"/><polygon class="cls-26" points="604 376 643 382 631 392 604 376"/><polygon class="cls-27" points="643 382 673 388 631 392 643 382"/><polygon class="cls-28" points="631 392 678 401 673 388 631 392"/><polygon class="cls-29" points="673 388 702 395 678 401 673 388"/><polygon class="cls-30" points="702 395 721 413 678 401 702 395"/><polygon class="cls-31" points="721 413 732 403 702 395 721 413"/><polygon class="cls-32" points="721 413 752 425 732 403 721 413"/><polygon class="cls-33" points="732 403 749 407 752 425 732 403"/><polygon class="cls-34" points="752 425 771 437 749 407 752 425"/><polygon class="cls-35" points="749 407 778 428 771 437 749 407"/><polygon class="cls-36" points="771 437 784 450 778 428 771 437"/><polygon class="cls-37" points="771 437 775 457 784 450 771 437"/><polygon class="cls-38" points="784 450 778 469 775 457 784 450"/><polygon class="cls-39" points="775 457 771 473 778 469 775 457"/><polygon class="cls-40" points="771 473 767 482 778 469 771 473"/><polygon class="cls-41" points="778 469 769 491 767 482 778 469"/><polygon class="cls-42" points="767 482 760 497 769 491 767 482"/><polygon class="cls-43" points="760 497 760 511 769 491 760 497"/><polygon class="cls-44" points="760 497 748 508 760 512 760 497"/><polygon class="cls-45" points="748 508 748 519 760 512 748 508"/><polygon class="cls-46" points="748 508 738 522 748 519 748 508"/><polygon class="cls-47" points="738 522 732 510 748 508 738 522"/><polygon class="cls-48" points="732 510 705 511 738 522 732 510"/><polygon class="cls-49" points="738 522 687 521 705 511 738 522"/><polygon class="cls-50" points="705 511 678 507 687 521 705 511"/><polygon class="cls-51" points="687 521 647 512 678 507 687 521"/><polygon class="cls-52" points="678 507 643 500 647 512 678 507"/><polygon class="cls-53" points="643 500 622 504 647 512 643 500"/><polygon class="cls-54" points="643 500 627 495 622 504 643 500"/><polygon class="cls-55" points="622 504 613 491 627 495 622 504"/><polygon class="cls-56" points="613 491 597 485 622 504 613 491"/><polygon class="cls-57" points="622 504 586 493 597 485 622 504"/><polygon class="cls-58" points="597 485 576 478 586 493 597 485"/><polygon class="cls-59" points="576 478 556 471 586 493 576 478"/><polygon class="cls-60" points="586 493 535 475 556 471 586 493"/><polygon class="cls-61" points="556 471 527 459 535 475 556 471"/><polygon class="cls-62" points="535 475 508 465 527 459 535 475"/><polygon class="cls-63" points="527 459 501 447 508 465 527 459"/><polygon class="cls-64" points="508 465 473 452 501 447 508 465"/><polygon class="cls-65" points="501 447 465 423 473 452 501 447"/><polygon class="cls-66" points="465 423 421 432 473 452 465 423"/><polygon class="cls-67" points="465 423 451 377 421 432 465 423"/><polygon class="cls-68" points="469 389 465 423 451 377 469 389"/><polygon class="cls-69" points="469 389 501 447 465 423 469 389"/><polygon class="cls-70" points="496.95 381.99 501 447 469 389 496.95 381.99"/><polygon class="cls-71" points="521 413 546 379 529 377 521 413"/><polygon class="cls-72" points="556 471 546 379 527 459 556 471"/><polygon class="cls-73" points="577 382 546 379 556 471 577 382"/><polygon class="cls-74" points="576 478 577 382 556 471 576 478"/><polygon class="cls-75" points="631 392 576 478 577 382 631 392"/><polygon class="cls-76" points="597 485 631 392 576 478 597 485"/><polygon class="cls-77" points="613 491 631 392 597 485 613 491"/><polygon class="cls-78" points="678 401 613 491 631 392 678 401"/><polygon class="cls-79" points="627 495 678 401 613 491 627 495"/><polygon class="cls-80" points="643 500 678 401 627 495 643 500"/><polygon class="cls-81" points="678 507 678 401 643 500 678 507"/><polygon class="cls-82" points="721 413 678 401 678 507 721 413"/><polygon class="cls-83" points="705 511 721 413 678 507 705 511"/><polygon class="cls-84" points="752 425 705 511 721 413 752 425"/><polygon class="cls-85" points="771 437 705 511 752 425 771 437"/><polygon class="cls-86" points="732 510 771 437 705 511 732 510"/><polygon class="cls-87" points="748 508 771 437 732 510 748 508"/><polygon class="cls-88" points="775 457 771 437 748 508 775 457"/><polygon class="cls-89" points="760 497 775 457 748 508 760 497"/><polygon class="cls-90" points="771 473 775 457 760 497 767 482 771 473"/><polygon class="cls-91" points="316 439 406 504 384 601 316 439"/><polygon class="cls-92" points="406 504 454 591 384 601 406 504"/><polygon class="cls-93" points="454 591 518 560 406 504 454 591"/><polygon class="cls-94" points="518 560 501 657 454 591 518 560"/><polygon class="cls-95" points="384 601 454 591 501 657 384 601"/><polygon class="cls-96" points="316 439 324 541 384 601 316 439"/><polygon class="cls-97" points="316 439 252 571 324 541 316 439"/><polygon class="cls-98" points="384 601 324 541 252 571 384 601"/><polygon class="cls-99" points="501 657 442 703 384 601 501 657"/><polygon class="cls-100" points="592 532 406 504 518 560 592 532"/><polygon class="cls-101" points="406 504 406 447 316 439 406 504"/><polygon class="cls-102" points="406 447 462 485 406 504 406 447"/><polygon class="cls-103" points="592 532 577 508 406 504 592 532"/><polygon class="cls-104" points="462 485 577 508 406 504 462 485"/><polygon class="cls-105" points="406 447 421 432 462 485 406 447"/><polygon class="cls-106" points="473 452 462 485 421 432 473 452"/><polygon class="cls-107" points="508 465 462 485 473 452 508 465"/><polygon class="cls-108" points="535 475 577 508 462 485 535 475"/><polygon class="cls-109" points="508 465 462 485 535 475 508 465"/><polygon class="cls-110" points="586 493 577 508 535 475 586 493"/><polygon class="cls-111" points="622 504 577 508 586 493 622 504"/><polygon class="cls-112" points="592 532 622 504 577 508 592 532"/><polygon class="cls-113" points="647 512 592 532 622 504 647 512"/><polygon class="cls-114" points="647 512 634 560 592 532 647 512"/><polygon class="cls-115" points="592 532 595 560 634 560 592 532"/><polygon class="cls-116" points="595 560 554.13 601.07 592 532 595 560"/><polygon class="cls-117" points="501 657 592 660 554.13 601.07 501 657"/><polygon class="cls-118" points="595 560 577 586 554.13 601.07 595 560"/><polygon class="cls-119" points="581.87 591.04 577 586 577.94 602.11 581.87 591.04"/><polygon class="cls-120" points="581.87 591.04 588 609 577.94 602.11 581.87 591.04"/><polygon class="cls-121" points="595 560 588 609 581.87 591.04 595 560"/><polygon class="cls-122" points="595 560 613 580 588 609 595 560"/><polygon class="cls-123" points="634 560 595 560 613 580 634 560"/><polygon class="cls-124" points="613 580 634 586 634 560 613 580"/><polygon class="cls-125" points="588 609 634 586 613 580 588 609"/><polygon class="cls-126" points="634 560 687 521 647 512 634 560"/><polygon class="cls-127" points="687 521 702 546 634 560 687 521"/><polygon class="cls-128" points="620 601 652 601 634 586 620 601"/><polygon class="cls-129" points="702 546 711 570 652 601 702 546"/><polygon class="cls-130" points="652 601 660 624 687.17 597 652 601"/><polygon class="cls-131" points="687.17 597 699 617 711 601 687.17 597"/><polygon class="cls-132" points="699 617 687.17 597 660 624 699 617"/><polygon class="cls-133" points="660 624 634 617 652 601 660 624"/><polygon class="cls-134" points="652 601 620 601 634 617 652 601"/><polygon class="cls-135" points="588 609 620 601 634 617 588 609"/><polygon class="cls-136" points="592 660 588 609 577.94 602.11 592 660"/><polygon class="cls-137" points="634 617 592 660 588 609 634 617"/><polygon class="cls-138" points="660 624 592 660 634 617 660 624"/><polygon class="cls-139" points="592 660 638 657 660 624 592 660"/><polygon class="cls-140" points="699 617 638 657 660 624 699 617"/><polygon class="cls-141" points="391 416 406 447 421 432 391 416"/><polygon class="cls-142" points="406 447 377 410 391 416 406 447"/><polygon class="cls-143" points="377 410 316 439 406 447 377 410"/><polygon class="cls-144" points="333 397 266 431 283 380 333 397"/><polygon class="cls-145" points="333 397 316 439 377 410 333 397"/><polygon class="cls-146" points="266 431 252 571 316 439 266 431"/><polygon class="cls-147" points="333 397 316 439 266 431 333 397"/><polygon class="cls-148" points="244 364 266 431 283 380 244 364"/><polygon class="cls-149" points="222 354 244 364 266 431 222 354"/><polygon class="cls-150" points="322 639 354 753 442 703 322 639"/><polygon class="cls-151" points="442 703 458 775 354 753 442 703"/><polygon class="cls-152" points="501 657 514 691 592 660 501 657"/><polygon class="cls-153" points="442 703 514 691 501 657 442 703"/><polygon class="cls-154" points="514 691 458 775 442 703 514 691"/><polygon class="cls-155" points="191 330 175 362 222 354 191 330"/><polygon class="cls-156" points="175 362 223.01 378.06 222 354 175 362"/><polygon class="cls-157" points="227.02 467.04 203 450 221.03 423 227.02 467.04"/><polygon class="cls-158" points="203 450 215 410 221.03 423 203 450"/><polygon class="cls-159" points="215 410 223.01 378.06 221.03 423 215 410"/><polygon class="cls-160" points="228.03 502.04 177 532 220 551 228.03 502.04"/><polygon class="cls-161" points="215 410 175 362 223.01 378.06 215 410"/><polygon class="cls-162" points="191 330 146 354 175 362 191 330"/><polygon class="cls-163" points="175 362 152 388 146 354 175 362"/><polygon class="cls-164" points="146 354 130 416 152 388 146 354"/><polygon class="cls-165" points="152 388 146 446 130 416 152 388"/><polygon class="cls-166" points="130 416 141 482 146 446 130 416"/><polygon class="cls-167" points="146 446 152 499 141 482 146 446"/><polygon class="cls-168" points="146 446 177 507 152 499 146 446"/><polygon class="cls-169" points="146 446 164 414 152 388 146 446"/><polygon class="cls-170" points="175 362 164 414 152 388 175 362"/><polygon class="cls-171" points="164 414 215 410 175 362 164 414"/><polygon class="cls-172" points="203 450 164 414 215 410 203 450"/><polygon class="cls-173" points="203 450 203.74 485 227.02 467.04 203 450"/><polygon class="cls-174" points="164 414 168 459 203 450 164 414"/><polygon class="cls-175" points="168 459 146 446 164 414 168 459"/><polygon class="cls-176" points="168 459 203.74 485 203 450 168 459"/><polygon class="cls-177" points="168 459 177 507 203.74 485 168 459"/><polygon class="cls-178" points="146 446 168 459 177 507 146 446"/><polygon class="cls-179" points="177 532 162 608 220 551 177 532"/><polygon class="cls-180" points="252 571 162 608 220 551 252 571"/><polygon class="cls-181" points="242 629 162 608 252 571 242 629"/><polygon class="cls-182" points="162 608 141 663 242 629 162 608"/><polygon class="cls-183" points="141 663 102 733 146 708 141 663"/><polygon class="cls-184" points="242 629 146 708 141 663 242 629"/><polygon class="cls-185" points="242 629 354 753 322 639 242 629"/><polygon class="cls-186" points="354 753 252 687 242 629 354 753"/><polygon class="cls-187" points="252 687 146 708 242 629 252 687"/><polygon class="cls-188" points="252 687 256 742 354 753 252 687"/><polygon class="cls-189" points="354 753 332 781 458 775 354 753"/><polygon class="cls-190" points="332 781 256 742 354 753 332 781"/><polygon class="cls-191" points="146 708 207 753 252 687 146 708"/><polygon class="cls-192" points="207 753 256 742 252 687 207 753"/><polygon class="cls-193" points="207 753 263 799 256 742 207 753"/><polygon class="cls-194" points="332 781 263 799 256 742 332 781"/><polygon class="cls-195" points="332 781 329 828 263 799 332 781"/><polygon class="cls-196" points="332 781 371 818 329 828 332 781"/><polygon class="cls-197" points="371 818 458 775 332 781 371 818"/><polygon class="cls-196" points="371 818 384 836 458 775 371 818"/><polygon class="cls-198" points="384 836 371 818 329 828 384 836"/><polygon class="cls-199" points="458 775 473 804 514 691 458 775"/><polygon class="cls-200" points="473 804 462 849.67 458 775 473 804"/><polygon class="cls-201" points="384 836 462 849.67 458 775 384 836"/><polygon class="cls-202" points="473 804 514 761 514 691 473 804"/><polygon class="cls-203" points="623 879 645 855 623 806 623 879"/><polygon class="cls-204" points="623 806 645 830.25 645 855 623 806"/><polygon class="cls-205" points="645 855 635 883 623 879 645 855"/><polygon class="cls-206" points="623 806 609 787 623 879 623 806"/><polygon class="cls-207" points="623 879 599 861 609 787 623 879"/><polygon class="cls-208" points="599 861 597 781 609 787 599 861"/><polygon class="cls-209" points="599 861 560 827 597 781 599 861"/><polygon class="cls-210" points="560 827 546 812.71 597 781 560 827"/><polygon class="cls-211" points="597 781 612.64 761.64 609 787 597 781"/><polygon class="cls-212" points="597 781 612.64 761.64 592 720 597 781"/><polygon class="cls-213" points="546 812.71 541 761 560.93 700.97 546 812.71"/><polygon class="cls-214" points="546 812.71 592 720 597 781 546 812.71"/><polygon class="cls-215" points="560.93 700.97 592 720 546 812.71 560.93 700.97"/><polygon class="cls-216" points="592 720 604 685 560.93 700.97 592 720"/><polygon class="cls-217" points="592 720 656 679 612.64 761.64 592 720"/><polygon class="cls-218" points="656 679 635.18 750.78 612.64 761.64 656 679"/><polygon class="cls-219" points="604 685 656 679 592 720 604 685"/><polygon class="cls-220" points="638 657 656 679 604 685 638 657"/><polygon class="cls-221" points="638 657 694 636 699 617 638 657"/><polygon class="cls-222" points="694 636 656 679 638 657 694 636"/><polygon class="cls-223" points="635.18 750.78 675.15 790.15 656 679 635.18 750.78"/><polygon class="cls-224" points="541 761 514 761 560.93 700.97 541 761"/><polygon class="cls-225" points="514 761 521 818 541 761 514 761"/><polygon class="cls-226" points="521 818 546 812.71 541 761 521 818"/><polygon class="cls-227" points="521 818 527 846 546 812.71 521 818"/><polygon class="cls-228" points="527 846 560 827 546 812.71 527 846"/><polygon class="cls-229" points="599 861 527 846 560 827 599 861"/><polygon class="cls-230" points="599 861 597 888 623 879 599 861"/><polygon class="cls-231" points="527 846 537 880 599 861 527 846"/><polygon class="cls-232" points="599 861 537 880 597 888 599 861"/><polygon class="cls-233" points="473 804 521 818 514 761 473 804"/><polygon class="cls-234" points="473 804 462 849.67 521 818 473 804"/><polygon class="cls-235" points="462 849.67 456 879 521 818 462 849.67"/><polygon class="cls-196" points="521 818 504 885 456 879 521 818"/><polygon class="cls-236" points="527 846 504 885 521 818 527 846"/><polygon class="cls-237" points="537 880 527 846 504 885 537 880"/><polygon class="cls-238" points="612.64 761.64 675.15 790.15 635.18 750.78 612.64 761.64"/><polygon class="cls-238" points="675.15 790.15 612.64 761.64 638 796 675.15 790.15"/><polygon points="612.64 761.64 609 787 638 796 612.64 761.64"/><polygon points="609 787 638 796 623 806 609 787"/><polygon class="cls-238" points="638 796 660 818 675.15 790.15 638 796"/><polygon class="cls-238" points="623 806 660 818 638 796 623 806"/><polygon class="cls-239" points="645 830.25 660 818 623 806 645 830.25"/><polygon class="cls-240" points="675.15 790.15 687 704 656 679 675.15 790.15"/><polygon class="cls-241" points="656 679 699 674 694 636 656 679"/><polygon class="cls-242" points="656 679 699 674 687 704 656 679"/><polygon class="cls-243" points="687 704 712 757 675.15 790.15 687 704"/><polygon class="cls-244" points="699 674 726 704 687 704 699 674"/><polygon class="cls-245" points="687 704 726 704 712 757 687 704"/><polygon class="cls-246" points="699 674 721 638 694 636 699 674"/><polygon class="cls-247" points="726 704 721 638 699 674 726 704"/><polygon class="cls-248" points="726 704 740 680 721 638 726 704"/><polygon class="cls-249" points="721 638 754 668 740 680 721 638"/><polygon class="cls-250" points="754 668 792 710 757 699 754 668"/><polygon class="cls-251" points="740 680 757 699 754 668 740 680"/><polygon class="cls-252" points="726 704 757 699 740 680 726 704"/><polygon class="cls-253" points="712 757 757 699 726 704 712 757"/><polygon class="cls-254" points="792 710 712 757 757 699 792 710"/><polygon class="cls-255" points="712 757 778 739 792 710 712 757"/><polygon class="cls-256" points="792 710 825 750 778 739 792 710"/><polygon class="cls-257" points="778 739 764 777 712 757 778 739"/><polygon class="cls-258" points="764 777 825 750 778 739 764 777"/><polygon class="cls-259" points="675.15 790.15 764 777 712 757 675.15 790.15"/><polygon class="cls-260" points="675.15 790.15 724 857 764 777 675.15 790.15"/><polygon class="cls-261" points="764 777 862 800 825 750 764 777"/><polygon class="cls-262" points="724 857 862 800 764 777 724 857"/><polygon points="660 818 676 816.5 675.15 790.15 660 818"/><polygon class="cls-263" points="676 816.5 724 857 675.15 790.15 676 816.5"/><polygon points="645 830.25 664 842 660 818 645 830.25"/><polygon points="660 818 676 816.5 664 842 660 818"/><polygon points="664 842 724 857 676 816.5 664 842"/><polygon points="664 842 645 855 645 830.25 664 842"/><polygon class="cls-238" points="645 855 666 879 635 883 645 855"/><polygon points="645 855 664 842 666 879 645 855"/><polygon points="664 842 690 872 666 879 664 842"/><polygon points="664 842 690 872 724 857 664 842"/><polygon class="cls-264" points="724 857 815 863 862 800 724 857"/><polygon class="cls-265" points="815 863 910 857 862 800 815 863"/><polygon class="cls-266" points="815 863 841 879 910 857 815 863"/><polygon class="cls-267" points="841 879 754 891 815 863 841 879"/><polygon class="cls-268" points="754 891 724 857 815 863 754 891"/><polygon class="cls-269" points="724 857 720 885 754 891 724 857"/><polygon class="cls-270" points="690 872 720 885 724 857 690 872"/><polygon class="cls-271" points="329 828 312 870 384 836 329 828"/><polygon class="cls-272" points="263 799 280 836 329 828 263 799"/><polygon class="cls-273" points="207 753 141 781 263 799 207 753"/><polygon class="cls-274" points="312 870 402 860 384 836 312 870"/><polygon class="cls-275" points="384 836 462 849.67 402 860 384 836"/><polygon class="cls-276" points="280 836 312 870 329 828 280 836"/><polygon class="cls-277" points="141 781 280 836 263 799 141 781"/><polygon class="cls-278" points="146 708 141 781 207 753 146 708"/><polygon class="cls-279" points="102 733 141 781 146 708 102 733"/><polygon class="cls-280" points="312 870 215 841 280 836 312 870"/><polygon class="cls-281" points="280 836 141 781 215 841 280 836"/><polygon class="cls-282" points="102 733 67 777 141 781 102 733"/><polygon class="cls-283" points="141 781 118 818 67 777 141 781"/><polygon class="cls-284" points="118 818 118 863 141 781 118 818"/><polygon class="cls-285" points="118 863 152 836 141 781 118 863"/><polygon class="cls-286" points="141 781 152 836 215 841 141 781"/><polygon class="cls-287" points="67 777 53 815 118 818 67 777"/><polygon class="cls-288" points="53 815 118 863 118 818 53 815"/><polygon class="cls-289" points="67 777 18 800 53 815 67 777"/><polygon class="cls-290" points="18 800 0 839 53 815 18 800"/><polygon class="cls-291" points="0 839 32 877 53 815 0 839"/><polygon class="cls-292" points="32 877 85 891 53 815 32 877"/><polygon class="cls-293" points="118 863 85 891 53 815 118 863"/><polygon class="cls-294" points="85 891 312 870 118 863 85 891"/><polygon class="cls-295" points="312 870 332 903 402 860 312 870"/><polygon class="cls-296" points="402 860 456 879 462 849.67 402 860"/><polygon class="cls-297" points="332 903 456 879 402 860 332 903"/><polygon points="146 354 141 312 191 330 146 354"/><polygon points="141 312 177 269 191 330 141 312"/><polygon class="cls-298" points="141 312 146 252 177 269 141 312"/><polygon class="cls-299" points="146 252 233 233 177 269 146 252"/><polygon points="177 269 203 322 191 330 177 269"/><polygon class="cls-300" points="203 322 220 277 227 322 203 322"/><polygon points="177 269 220 277 203 322 177 269"/><polygon class="cls-301" points="177 269 233 233 220 277 177 269"/><polygon class="cls-302" points="233 233 177 228 146 252 233 233"/><polygon class="cls-303" points="146 252 161 202 177 228 146 252"/><polygon class="cls-304" points="161 202 202 165 177 228 161 202"/><polygon class="cls-305" points="202 165 233 233 177 228 202 165"/><polygon class="cls-306" points="227 322 284 295 220 277 227 322"/><polygon class="cls-307" points="233 233 284 295 220 277 233 233"/><polygon class="cls-308" points="233 233 354 269 284 295 233 233"/><polygon class="cls-309" points="202 165 354 269 233 233 202 165"/><polygon points="161 202 223 83 202 165 161 202"/><polygon class="cls-310" points="223 83 318 83 202 165 223 83"/><polygon class="cls-311" points="318 83 266 185 202 165 318 83"/><polygon class="cls-312" points="266 185 354 269 202 165 266 185"/><polygon class="cls-313" points="223 83 295 31 318 83 223 83"/><polygon class="cls-314" points="318 83 342 150 266 185 318 83"/><polygon class="cls-315" points="342 150 333 196 266 185 342 150"/><polygon class="cls-316" points="333 196 354 269 266 185 333 196"/><polygon class="cls-317" points="284 295 266 331 227 322 284 295"/><polygon class="cls-318" points="266 331 293 336 284 295 266 331"/><polygon class="cls-319" points="284 295 354 269 293 336 284 295"/><polygon class="cls-320" points="318 83 346 13 295 31 318 83"/><polygon class="cls-321" points="346 13 358 51 318 83 346 13"/><polygon class="cls-322" points="358 51 318 83 342 150 358 51"/><polygon class="cls-323" points="293 336 400 299 354 269 293 336"/><polygon class="cls-324" points="354 269 391 176 333 196 354 269"/><polygon class="cls-325" points="342 150 391 176 333 196 342 150"/><polygon points="358 51 391 176 342 150 358 51"/><polygon class="cls-326" points="346 13 424 0 358 51 346 13"/><polygon class="cls-327" points="358 51 460 96 391 176 358 51"/><polygon class="cls-328" points="391 176 400 299 354 269 391 176"/><polygon class="cls-329" points="330 341 400 299 293 336 330 341"/><polygon class="cls-330" points="330 341 377 348 400 299 330 341"/><polygon class="cls-331" points="424 0 460 96 358 51 424 0"/><polygon class="cls-332" points="400 299 409 348.29 377 348 400 299"/><polygon class="cls-333" points="400 299 473 248 391 176 400 299"/><polygon class="cls-334" points="460 96 473 157 391 176 460 96"/><polygon class="cls-307" points="473 157 579 157 460 96 473 157"/><polygon class="cls-335" points="400 299 409 348.29 473 248 400 299"/><polygon class="cls-336" points="391 176 473 157 473 248 391 176"/><polygon class="cls-337" points="460 96 483 57 424 0 460 96"/><polygon class="cls-338" points="424 0 522 17 483 57 424 0"/><polygon class="cls-339" points="522 17 592 37.33 483 57 522 17"/><polygon class="cls-340" points="483 57 579 157 460 96 483 57"/><polygon class="cls-341" points="483 57 560.2 69 592 37.33 483 57"/><polygon class="cls-342" points="483 57 560.2 69 579 157 483 57"/><polygon class="cls-343" points="473 248 537 196 473 157 473 248"/><polygon class="cls-344" points="473 157 579 157 537 196 473 157"/><polygon class="cls-345" points="432 349 473 248 409 348.29 432 349"/><polygon class="cls-346" points="473 248 505 320 432 349 473 248"/><polygon class="cls-347" points="473 248 537 196 505 320 473 248"/><polygon class="cls-348" points="495 358 505 320 432 349 495 358"/><polygon class="cls-349" points="592 37.33 645 53 560.2 69 592 37.33"/><polygon class="cls-350" points="560.2 69 623 100 579 157 560.2 69"/><polygon class="cls-351" points="560.2 69 623 100 645 53 560.2 69"/><polygon class="cls-352" points="495 358 518 362 505 320 495 358"/><polygon class="cls-353" points="518 362 535 320 505 320 518 362"/><polygon class="cls-354" points="539 364 586 333 518 362 539 364"/><polygon class="cls-355" points="535 320 586 333 518 362 535 320"/><polygon class="cls-356" points="537 196 576 193 579 157 537 196"/><polygon class="cls-357" points="579 157 609 189 576 193 579 157"/><polygon class="cls-358" points="609 189 586.2 213 576 193 609 189"/><polygon class="cls-359" points="579 157 645 179 609 189 579 157"/><polygon class="cls-360" points="609 189 604 222 645 179 609 189"/><polygon class="cls-361" points="604 222 614 240 645 179 604 222"/><polygon class="cls-362" points="586.2 213 604 222 609 189 586.2 213"/><polygon class="cls-363" points="604 222 578 258 614 240 604 222"/><polygon class="cls-364" points="614 240 673 179 645 179 614 240"/><polygon class="cls-365" points="623 100 645 179 579 157 623 100"/><polygon class="cls-366" points="623 100 647 96 645 53 623 100"/><polygon class="cls-367" points="647 96 664 88 645 53 647 96"/><polygon class="cls-368" points="645 53 704 91 664 88 645 53"/><polygon class="cls-369" points="664 88 667 129 704 91 664 88"/><polygon class="cls-370" points="647 96 667 129 664 88 647 96"/><polygon class="cls-371" points="623 100 647 136 647 96 623 100"/><polygon class="cls-372" points="623 100 647 136 645 179 623 100"/><polygon class="cls-373" points="647 136 673 179 645 179 647 136"/><polygon class="cls-301" points="667 129 647 136 647 96 667 129"/><polygon class="cls-374" points="576 193 505 320 537 196 576 193"/><polygon class="cls-375" points="586.2 213 574 233 576 193 586.2 213"/><polygon class="cls-376" points="574 233 576 193 505 320 574 233"/><polygon class="cls-377" points="574 233 571 282 505 320 574 233"/><polygon class="cls-378" points="505 320 571 282 535 320 505 320"/><polygon class="cls-379" points="604 222 578 258 586.2 213 604 222"/><polygon class="cls-380" points="578 258 574 233 586.2 213 578 258"/><polygon class="cls-381" points="578 258 571 282 574 233 578 258"/><polygon class="cls-382" points="667 129 673 179 647 136 667 129"/><polygon class="cls-383" points="667 129 724 108 704 91 667 129"/><polygon class="cls-384" points="724 108 673 179 667 129 724 108"/><polygon class="cls-385" points="724 108 748 133 673 179 724 108"/><polygon class="cls-386" points="748 133 743 189 673 179 748 133"/><polygon class="cls-387" points="177 507 177 532 228.03 502.04 177 507"/><polygon class="cls-388" points="673 179 684 218 743 189 673 179"/><polygon class="cls-389" points="684 218 664 258 743 189 684 218"/><polygon class="cls-390" points="664 258 654 282 743 189 664 258"/><polygon class="cls-391" points="743 189 767 157 748 133 743 189"/><polygon class="cls-392" points="654 282 695 282 743 189 654 282"/><polygon class="cls-393" points="743 189 755 213 767 157 743 189"/><polygon class="cls-394" points="743 189 695 282 755 213 743 189"/><polygon class="cls-395" points="755 213 775 213 767 157 755 213"/><polygon class="cls-396" points="755 213 748 287 775 213 755 213"/><polygon class="cls-397" points="767 157 784 200 775 213 767 157"/><polygon class="cls-398" points="784 200 779 256 775 213 784 200"/><polygon class="cls-399" points="775 213 779 256 748 287 775 213"/><polygon class="cls-400" points="748 287 736 256 755 213 748 287"/><polygon class="cls-401" points="736 256 755 213 695 282 736 256"/><polygon class="cls-402" points="684 218 614 240 673 179 684 218"/><polygon class="cls-403" points="664 258 614 240 684 218 664 258"/><polygon class="cls-404" points="614 240 571 282 578 258 614 240"/><polygon class="cls-405" points="571 282 586 333 535 320 571 282"/><polygon class="cls-406" points="586 333 567 370 539 364 586 333"/><polygon class="cls-407" points="614 240 586 333 571 282 614 240"/><polygon class="cls-408" points="614 240 654 282 664 258 614 240"/><polygon class="cls-409" points="654 282 586 333 614 240 654 282"/><polygon class="cls-410" points="586 333 604 376 567 370 586 333"/><polygon class="cls-411" points="586 333 654 282 604 376 586 333"/><polygon class="cls-412" points="654 282 643 382 604 376 654 282"/><polygon class="cls-413" points="695 282 643 382 654 282 695 282"/><polygon class="cls-414" points="695 282 705 338 643 382 695 282"/><polygon class="cls-415" points="695 282 705 338 726 287 695 282"/><polygon class="cls-416" points="695 282 726 287 736 256 695 282"/><polygon class="cls-417" points="726 287 748 287 736 256 726 287"/><polygon class="cls-418" points="705 338 748 287 726 287 705 338"/><polygon class="cls-419" points="643 382 687 371 673 388 643 382"/><polygon class="cls-420" points="687 371 705 338 643 382 687 371"/><polygon class="cls-421" points="748 287 745 341 705 338 748 287"/><polygon class="cls-422" points="705 338 721 378 745 341 705 338"/><polygon class="cls-423" points="687 371 702 395 673 388 687 371"/><polygon class="cls-424" points="687 371 721 378 705 338 687 371"/><polygon class="cls-425" points="687 371 721 378 702 395 687 371"/><polygon class="cls-426" points="721 378 732 403 702 395 721 378"/><polygon class="cls-427" points="745 341 732 403 721 378 745 341"/><polygon class="cls-428" points="745 341 749 407 732 403 745 341"/><polygon points="496.95 381.99 521 413 529 377 496.95 381.99"/><polygon class="cls-429" points="501 447 521 413 496.95 381.99 501 447"/><polygon class="cls-430" points="634 586 656 577 652 601 634 586"/><polygon class="cls-431" points="656 577 702 546 652 601 656 577"/><polygon class="cls-432" points="634 560 656 577 634 586 634 560"/><polygon class="cls-433" points="634 560 702 546 656 577 634 560"/><polygon class="cls-434" points="738 522 717 530 687 521 738 522"/><polygon class="cls-435" points="717 530 702 546 687 521 717 530"/><polygon class="cls-436" points="228.03 502.04 220 551 252 571 228.03 502.04"/><path class="cls-437" d="M717,530c0,2-6,40-6,40l-9-24Z"/><polygon class="cls-438" points="85 891 332 903 312 870 85 891"/><polygon class="cls-439" points="687 597 711 570 652 601 687 597"/><polygon class="cls-440" points="711 570 714 585 687 597 711 570"/><polygon class="cls-441" points="711 601 714 585 687 597 711 601"/><polygon class="cls-442" points="215 841 118 863 152 836 215 841"/><polygon class="cls-443" points="215 841 312 870 118 863 215 841"/><polygon class="cls-444" points="384 601 322 639 252 571 384 601"/><polygon class="cls-445" points="322 639 242 629 252 571 322 639"/><polygon class="cls-446" points="322 639 442 703 384 601 322 639"/><polygon class="cls-447" points="227.02 467.04 245 476 266 431 227.02 467.04"/><polygon class="cls-448" points="245 476 252 571 266 431 245 476"/><polygon class="cls-449" points="203.74 485 228.03 502.04 227.02 467.04 203.74 485"/><polygon class="cls-450" points="245 476 228.03 502.04 227.02 467.04 245 476"/><polygon class="cls-451" points="203.74 485 228.03 502.04 177 507 203.74 485"/><polygon class="cls-452" points="228.03 502.04 252 571 245 476 228.03 502.04"/><polygon class="cls-453" points="177 507 177 532 152 499 177 507"/><polygon class="cls-454" points="223.01 378.06 266 431 222 354 223.01 378.06"/><polygon class="cls-455" points="223.01 378.06 237 431 266 431 223.01 378.06"/><polygon class="cls-456" points="221.03 423 237 431 223.01 378.06 221.03 423"/><polygon class="cls-457" points="227.02 467.04 237 431 221.03 423 227.02 467.04"/><polygon class="cls-458" points="237 431 227.02 467.04 266 431 237 431"/><polygon class="cls-459" points="501 447 522 435 521 413 501 447"/><polygon class="cls-460" points="546 379 522 435 521 413 546 379"/><polygon class="cls-461" points="527 459 522 435 546 379 527 459"/><polygon class="cls-462" points="522 435 501 447 527 459 522 435"/><polygon class="cls-463" points="495 358 496.95 381.99 518 362 495 358"/><polygon class="cls-464" points="469 389 496.95 381.99 495 358 469 389"/><polygon class="cls-465" points="578 602 554.13 601.07 577 586 578 602"/><polygon class="cls-466" points="514 761 560.93 700.97 514 691 514 761"/><polygon class="cls-467" points="592 660 561 701 604 685 592 660"/><polygon class="cls-468" points="638 657 592 660 604 685 638 657"/><polygon class="cls-469" points="588 609 634 586 620 601 588 609"/><polygon class="cls-20" points="518 362 529 377 497 382 518 362"/><polygon class="cls-3" points="203 322 222 354 191 330 203 322"/><polygon class="cls-163" points="130 416 132 454 141 482 130 416"/><polygon class="cls-163" points="146 354 132 393 130 416 146 354"/><polygon class="cls-470" points="595 560 577 586 582 591 595 560"/><polygon class="cls-471" points="592 532 518 560 554 601 592 532"/><polygon class="cls-472" points="501 657 554 601 518 560 501 657"/><polygon class="cls-473" points="578 602 554 601 592 660 578 602"/><polygon class="cls-474" points="514 691 552 685 592 660 514 691"/><polygon class="cls-475" points="552 685 561 701 514 691 552 685"/><polygon class="cls-476" points="552 685 566 682 561 701 552 685"/><polygon class="cls-477" points="566 682 592 660 552 685 566 682"/><polygon class="cls-478" points="566 682 561 701 592 660 566 682"/></g></g></svg>